<svg width="22" height="22" viewBox="0 0 22 22" fill="none" xmlns="http://www.w3.org/2000/svg">
<path d="M10.5024 16.1971C10.5245 16.2191 10.5487 16.2389 10.5747 16.2563L10.6141 16.2777C10.6437 16.2967 10.6766 16.31 10.7111 16.3171L10.7522 16.3286C10.8151 16.341 10.8799 16.341 10.9428 16.3286L10.9856 16.3155L11.0349 16.3007C11.0518 16.2928 11.0683 16.2841 11.0842 16.2744L11.1187 16.2546C11.1459 16.2364 11.1712 16.2155 11.1943 16.1922L15.6172 11.7742C15.6723 11.7313 15.7178 11.6771 15.7504 11.6153C15.783 11.5535 15.8022 11.4855 15.8065 11.4157C15.8108 11.3459 15.8003 11.276 15.7755 11.2106C15.7508 11.1453 15.7125 11.0859 15.663 11.0364C15.6136 10.987 15.5542 10.9487 15.4888 10.9239C15.4235 10.8992 15.3536 10.8886 15.2838 10.893C15.214 10.8973 15.146 10.9164 15.0841 10.9491C15.0223 10.9817 14.9682 11.0271 14.9252 11.0823L11.3439 14.6587V1.38516C11.3439 1.25439 11.2919 1.12898 11.1994 1.03651C11.107 0.944039 10.9816 0.89209 10.8508 0.89209C10.72 0.89209 10.5946 0.944039 10.5021 1.03651C10.4097 1.12898 10.3577 1.25439 10.3577 1.38516V14.6587L6.77635 11.0823C6.68149 11.0085 6.56293 10.9719 6.44296 10.9793C6.32299 10.9868 6.20988 11.0378 6.12489 11.1228C6.03989 11.2078 5.98887 11.3209 5.98142 11.4409C5.97396 11.5608 6.01059 11.6794 6.0844 11.7742L10.5024 16.1971Z" fill="white"/>
<path d="M20.8768 15.3557C20.746 15.3557 20.6206 15.4077 20.5281 15.5001C20.4357 15.5926 20.3837 15.718 20.3837 15.8488V19.4647C20.3837 19.857 20.2279 20.2332 19.9505 20.5106C19.6731 20.788 19.2968 20.9439 18.9045 20.9439H2.7974C2.40509 20.9439 2.02884 20.788 1.75143 20.5106C1.47403 20.2332 1.31818 19.857 1.31818 19.4647V15.8488C1.31818 15.718 1.26623 15.5926 1.17376 15.5001C1.08129 15.4077 0.955877 15.3557 0.825106 15.3557C0.694334 15.3557 0.568919 15.4077 0.476449 15.5001C0.38398 15.5926 0.332031 15.718 0.332031 15.8488L0.332031 19.4647C0.332031 20.1185 0.591775 20.7456 1.05412 21.2079C1.51647 21.6703 2.14355 21.93 2.7974 21.93H18.9045C19.5584 21.93 20.1854 21.6703 20.6478 21.2079C21.1101 20.7456 21.3699 20.1185 21.3699 19.4647V15.8488C21.3699 15.718 21.3179 15.5926 21.2255 15.5001C21.133 15.4077 21.0076 15.3557 20.8768 15.3557Z" fill="white"/>
</svg>
